Coordinates
version=1
nRows=21
nColumns=33
inDegrees=yes

Units are S.I. units (second, meters, Newtons, ...)
Angles are in degrees.

endheader
time	ground_thorax_rot_x	ground_thorax_rot_y	ground_thorax_rot_z	ground_thorax_tx	ground_thorax_ty	ground_thorax_tz	clav_prot_r	clav_elev_r	scapula_abduction_r	scapula_elevation_r	scapula_upward_rot_r	scapula_winging_r	shoulder_elv_r	plane_of_elev_r	axial_rot_r	elbow_flexion_r	pro_sup_r	wrist_flex_r	wrist_dev_r	clav_prot_l	clav_elev_l	scapula_abduction_l	scapula_elevation_l	scapula_upward_rot_l	scapula_winging_l	shoulder_elv_l	plane_of_elev_l	axial_rot_l	elbow_flexion_l	pro_sup_l	wrist_flex_l	wrist_dev_l	
5.6200	-4.109166	0.292645	7.694290	-0.090070	1.031489	-0.000872	17.468641	-13.563289	43.983171	-14.042960	24.418068	-12.298248	-2.401792	-53.451144	123.232923	-34.955681	-120.702873	-4.698456	7.840195	26.571242	-12.637995	-39.767686	-4.813458	-25.564104	13.427822	56.637526	-0.009309	4.565627	11.821542	14.689609	14.058154	-4.120538	
5.6300	-4.099841	0.478047	7.712414	-0.090066	1.031593	-0.001184	17.404654	-13.553732	43.852174	-14.024445	24.368024	-12.246224	-2.714159	-53.717591	122.895303	-34.737915	-122.809574	-3.219544	6.180228	26.381920	-12.513222	-39.479916	-4.902570	-25.508812	13.285956	56.548736	-0.177268	4.462388	12.188109	14.080381	13.883008	-4.628756	
5.6400	-4.068997	0.690888	7.754707	-0.090078	1.031654	-0.001487	17.277876	-13.505438	43.593855	-13.962701	24.268654	-12.163407	-2.977183	-53.973467	122.593943	-34.533106	-124.871181	-1.462095	4.830694	26.187642	-12.423689	-39.177231	-4.976004	-25.482819	13.124121	56.481811	-0.329210	4.342884	12.547036	13.579608	13.743391	-5.181721	
5.6500	-4.080911	0.869871	7.796478	-0.090166	1.031632	-0.001789	17.163994	-13.547806	43.261056	-13.944648	24.038253	-12.007621	-3.165328	-54.210848	122.365107	-34.535179	-126.923631	-0.332346	3.884967	25.951414	-12.290024	-38.813028	-5.075050	-25.427201	12.938026	56.444077	-0.588515	4.295646	13.113684	13.192525	13.803586	-5.613033	
5.6600	-4.118490	1.045287	7.842370	-0.090318	1.031556	-0.002091	17.022067	-13.666441	42.793646	-13.959851	23.678869	-11.756644	-3.273112	-54.446026	122.197495	-34.680779	-129.184375	0.561776	3.314910	25.675668	-12.148964	-38.385269	-5.171304	-25.347408	12.716557	56.450164	-0.921989	4.255706	13.801481	12.942034	14.046762	-6.010267	
5.6700	-4.176314	1.213654	7.886927	-0.090550	1.031380	-0.002389	16.855329	-13.835759	42.211134	-13.990507	23.209220	-11.433771	-3.311379	-54.683575	122.109382	-34.984501	-131.562117	1.206290	3.068128	25.374534	-11.986758	-37.918220	-5.283281	-25.259972	12.477661	56.491290	-1.290869	4.254486	14.606255	12.829913	14.428761	-6.375482	
5.6800	-4.255173	1.386886	7.927351	-0.090852	1.031160	-0.002692	16.649275	-14.085955	41.483519	-14.060104	22.619407	-11.004925	-3.272205	-54.941500	122.109826	-35.414452	-134.363546	1.757952	3.044503	25.046039	-11.823710	-37.405848	-5.389049	-25.154147	12.213011	56.579832	-1.690592	4.246716	15.472520	12.864731	14.957852	-6.754620	
5.6900	-4.335844	1.559610	7.966988	-0.091236	1.030848	-0.002977	16.415854	-14.347401	40.669606	-14.121039	21.962395	-10.536190	-3.193386	-55.215028	122.198948	-35.960814	-137.293495	2.260232	3.114752	24.720553	-11.650060	-36.897822	-5.511953	-25.065909	11.953781	56.687207	-2.055176	4.286939	16.363611	13.013308	15.521645	-7.150344	
5.7000	-4.429656	1.730186	8.009706	-0.091693	1.030517	-0.003255	16.154431	-14.670684	39.748748	-14.209594	21.212015	-9.987685	-3.064195	-55.513366	122.395094	-36.625298	-140.572430	2.695357	3.208875	24.392697	-11.475700	-36.384414	-5.638297	-24.983256	11.691899	56.820584	-2.405821	4.360563	17.258089	13.291389	16.157874	-7.575905	
5.7100	-4.514098	1.888402	8.063903	-0.092240	1.030114	-0.003487	15.887004	-14.965561	38.797842	-14.260673	20.424207	-9.448433	-2.935504	-55.813860	122.661526	-37.424913	-143.674549	3.035382	3.291457	24.088746	-11.293719	-35.908359	-5.789949	-24.943446	11.453141	56.949961	-2.700379	4.531752	18.151715	13.650457	16.765544	-8.002278	
5.7200	-4.588937	2.040011	8.130741	-0.092859	1.029703	-0.003665	15.610814	-15.246514	37.808149	-14.285051	19.593400	-8.905260	-2.816088	-56.117596	122.963922	-38.359857	-146.661632	3.349449	3.380875	23.799447	-11.126970	-35.451889	-5.943621	-24.936737	11.220886	57.089509	-2.968474	4.758336	19.032805	14.080993	17.374778	-8.439091	
5.7300	-4.644795	2.178471	8.210421	-0.093547	1.029279	-0.003769	15.339388	-15.471553	36.833013	-14.257198	18.764066	-8.405374	-2.753022	-56.422941	123.240602	-39.438035	-149.186117	3.631729	3.474498	23.531497	-10.971500	-35.025756	-6.114344	-24.988862	11.001361	57.236199	-3.195195	5.068101	19.918197	14.557106	17.956341	-8.882132	
5.7400	-4.686287	2.308269	8.294938	-0.094284	1.028898	-0.003808	15.068904	-15.667975	35.862707	-14.200229	17.933321	-7.926298	-2.747506	-56.743389	123.480130	-40.655075	-151.421114	3.923129	3.581927	23.271609	-10.834860	-34.608158	-6.288590	-25.083165	10.779899	57.400629	-3.413154	5.405829	20.822259	15.060435	18.540232	-9.334741	
5.7500	-4.702141	2.423555	8.386791	-0.095075	1.028549	-0.003766	14.814809	-15.792742	34.950486	-14.086945	17.142171	-7.516577	-2.841048	-57.081146	123.641342	-42.002510	-153.152759	4.222854	3.679471	23.022994	-10.711640	-34.204872	-6.478441	-25.235951	10.560350	57.569326	-3.627898	5.764994	21.782402	15.519049	19.065240	-9.767013	
5.7600	-4.692031	2.523929	8.483951	-0.095918	1.028249	-0.003648	14.579952	-15.849222	34.102199	-13.921400	16.394183	-7.176100	-3.036607	-57.443270	123.732410	-43.464830	-154.512847	4.544334	3.749675	22.778816	-10.600425	-33.805799	-6.681879	-25.439687	10.337035	57.736732	-3.870486	6.098148	22.833436	15.874456	19.501872	-10.152784	
5.7700	-4.665904	2.607967	8.596367	-0.096810	1.028058	-0.003465	14.360323	-15.883062	33.295367	-13.737592	15.666824	-6.866339	-3.332646	-57.855287	123.748210	-45.031236	-155.588299	4.872567	3.776677	22.529236	-10.515864	-33.392984	-6.898199	-25.718836	10.094439	57.936435	-4.178054	6.375851	24.022873	16.124390	19.858367	-10.476084	
5.7800	-4.625584	2.673665	8.719285	-0.097739	1.027971	-0.003226	14.152955	-15.892198	32.524927	-13.534165	14.960179	-6.586231	-3.717328	-58.310342	123.714947	-46.678554	-156.483469	5.201946	3.734679	22.270852	-10.441852	-32.963803	-7.134051	-26.057749	9.835634	58.147999	-4.555611	6.594743	25.358583	16.232665	20.106124	-10.718258	
5.7900	-4.576139	2.720907	8.854761	-0.098692	1.027994	-0.002938	13.953451	-15.884283	31.778440	-13.315810	14.266364	-6.325532	-4.187122	-58.806158	123.631867	-48.390574	-157.245850	5.529158	3.630826	21.998816	-10.373511	-32.511070	-7.391501	-26.450807	9.557616	58.371227	-5.005884	6.758416	26.833158	16.206507	20.256109	-10.880272	
5.8000	-4.520794	2.748282	8.999666	-0.099649	1.028119	-0.002609	13.760721	-15.863924	31.055124	-13.087195	13.586657	-6.080947	-4.748493	-59.343976	123.487526	-50.152768	-157.918884	5.852647	3.464158	21.708011	-10.305560	-32.028013	-7.666139	-26.878438	9.259502	58.600598	-5.527913	6.868360	28.419723	16.033029	20.305642	-10.946231	
5.8100	-4.470146	2.759770	9.145893	-0.100579	1.028367	-0.002266	13.557774	-15.871509	30.310404	-12.877664	12.896499	-5.807042	-5.366740	-59.928998	123.304258	-51.952522	-158.662303	6.172693	3.265163	21.390900	-10.235066	-31.502507	-7.953711	-27.324986	8.935640	58.847421	-6.106626	6.946851	30.081038	15.793285	20.331578	-10.955320	
5.8200	-4.420008	2.754188	9.285320	-0.101465	1.028698	-0.001918	13.347698	-15.891622	29.560085	-12.678269	12.211608	-5.520366	-6.052314	-60.560296	123.072552	-53.778251	-159.468903	6.495153	3.010978	21.046977	-10.145909	-30.936000	-8.253818	-27.759986	8.593297	59.085330	-6.720208	7.005751	31.773427	15.468605	20.325598	-10.897292	
